# xmcd
#
# Track frame offsets:
#	150
#	12722
#	26456
#	38476
#	49895
#	63182
#	79547
#	92528
#	106963
#	119977
#	132092
#	142533
#	154774
#	165972
#	179527
#	189917
#	203620
#	217349
#
# Disc length: 3095 seconds
#
# Revision: 0
# Processed by: cddbd v1.5.2PL0 Copyright (c) Steve Scherf et al.
# Submitted via: dBpowerAMP V4.0
#
DISCID=e90c1512
DTITLE=Hank Ballard - You Can't Keep A Good Man Down
DYEAR=2008
DGENRE=R&B
TTITLE0=How You Gonna Get Respect (Part 1)
TTITLE1=Teardrops On Your Letter
TTITLE2=You're So Sexy
TTITLE3=Funky Soul Train
TTITLE4=Slip Away
TTITLE5=Which Way Should I Turn
TTITLE6=With Your Sweet Lovin' Self
TTITLE7=Are You Lonely For Me, Baby
TTITLE8=Thrill On The Hill
TTITLE9=Woman Is A Man's Best Friend
TTITLE10=Unwind Yourself
TTITLE11=Come On Wit' It
TTITLE12=Butter Your Popcorn
TTITLE13=Blackenized
TTITLE14=How You Gonna Get Respect (Part 1) (7" Version)
TTITLE15=Annie Had A Baby
TTITLE16=Finger Poppin' Time
TTITLE17=From The Love Side
EXTD=Sean P.
EXTT0=
EXTT1=
EXTT2=
EXTT3=
EXTT4=
EXTT5=
EXTT6=
EXTT7=
EXTT8=
EXTT9=
EXTT10=
EXTT11=
EXTT12=
EXTT13=
EXTT14=
EXTT15=
EXTT16=
EXTT17=
PLAYORDER=
